<svg xmlns="http://www.w3.org/2000/svg" viewBox="0 0 24 24" width="24" height="24">
  <path fill="none" d="M0 0h24v24H0z"/>
  <path fill="white" d="M22.46 6c-0.78 0.348-1.616 0.58-2.46 0.687 0.886-0.53 1.566-1.367 1.884-2.373-0.828 0.49-1.746 0.847-2.73 1.042-0.783-0.834-1.895-1.355-3.12-1.355-2.369 0-4.292 1.923-4.292 4.292 0 0.337 0.040 0.666 0.118 0.981-3.564-0.18-6.722-1.884-8.841-4.48-0.369 0.629-0.582 1.36-0.582 2.143 0 1.481 0.755 2.787 1.902 3.555-0.702-0.022-1.366-0.216-1.946-0.54 0 0.018 0 0.036 0 0.053 0 2.064 1.465 3.781 3.406 4.178-0.355 0.096-0.729 0.145-1.116 0.145-0.274 0-0.54-0.027-0.798-0.075 0.54 1.691 2.113 2.923 3.98 2.957-1.459 1.122-3.298 1.791-5.298 1.791-0.344 0-0.683-0.020-1.018-0.060 1.888 1.216 4.121 1.924 6.52 1.924 7.825 0 12.098-6.481 12.098-12.097 0-0.184-0.004-0.368-0.012-0.55 0.831-0.596 1.551-1.341 2.121-2.191z"/>
</svg>
